<svg xmlns="http://www.w3.org/2000/svg" width="665.01" height="461.297">
    <defs>
        <clipPath id="clip-path">
            <path id="Trazado_4010" data-name="Trazado 4010" class="cls-1" d="M151 0h166a151 151 0 0 1 151 151v363a151 151 0 0 1-151 151H151c-43 .591-110.852-26.121-131.57-66.458s-9.908-31.164-9.908-58.351L14.016 151C14.016 67.6 67.6 0 151 0z" transform="rotate(90 332.5 332.5)"/>
        </clipPath>
        <clipPath id="clip-path-2">
            <path id="Trazado_4005" data-name="Trazado 4005" class="cls-1" d="M352.785 401.3v-513.873L879.161 34.812A16.919 16.919 0 0 1 891.518 51.1v308.75z" transform="translate(-352.785 112.573)"/>
        </clipPath>
        <clipPath id="clip-path-3">
            <path id="Rectángulo_3004" data-name="Rectángulo 3004" class="cls-1" d="M0 0h213.556v265.609H0z"/>
        </clipPath>
        <clipPath id="clip-path-4">
            <path id="Rectángulo_3005" data-name="Rectángulo 3005" class="cls-1" d="M0 0h75.643v400.548H0z"/>
        </clipPath>
        <clipPath id="clip-path-5">
            <path id="Trazado_4003" data-name="Trazado 4003" class="cls-1" d="M349.95 1101.51v-185.6l53.441-18.44 176.268 11.017v193.023z" transform="translate(-349.95 -897.474)"/>
        </clipPath>
        <style>
            .cls-1,.cls-16,.cls-9{fill:none}.cls-3{fill:#fff}.cls-5{fill:#b6b7b7}.cls-10,.cls-11{fill:#00273b}.cls-11,.cls-16,.cls-9{stroke:#00273b;stroke-miterlimit:10}.cls-9{stroke-width:2.761px}.cls-11{stroke-width:1.38px}.cls-13{clip-path:url(#clip-path-4)}.cls-14{fill:#d3d4d3}.cls-16{stroke-width:3.353px}.cls-20{fill:#009efb}
        </style>
    </defs>
    <g id="Grupo_5925" data-name="Grupo 5925" transform="translate(-73.99 -306.703)">
        <g id="Grupo_5924" data-name="Grupo 5924" transform="translate(74 300)" style="opacity:.24">
            <path id="Trazado_4009" data-name="Trazado 4009" class="cls-3" d="m20 640.658 424.541-3.783L460.662 0H20.85z" transform="rotate(90 328.796 336.134)"/>
            <g id="Grupo_5923" data-name="Grupo 5923">
                <g id="Enmascarar_grupo_134" data-name="Enmascarar grupo 134" style="clip-path:url(#clip-path)">
                    <g id="Grupo_5921" data-name="Grupo 5921" transform="translate(-.065 -.012)">
                        <path id="Trazado_3988" data-name="Trazado 3988" class="cls-5" d="M353.568 401.883v-513.868L881.029 35.7A15.434 15.434 0 0 1 892.3 50.566v309.876z" transform="translate(-353.568 112.195)"/>
                        <g id="Grupo_5920" data-name="Grupo 5920" transform="translate(.28)">
                            <g id="Grupo_5919" data-name="Grupo 5919" style="clip-path:url(#clip-path-2)">
                                <g id="Grupo_5918" data-name="Grupo 5918" transform="translate(-185.895 115.326)">
                                    <g id="Grupo_5900" data-name="Grupo 5900" transform="translate(0 151.498)">
                                        <g id="Grupo_5899" data-name="Grupo 5899">
                                            <g id="Grupo_5895" data-name="Grupo 5895">
                                                <path id="Trazado_3989" data-name="Trazado 3989" class="cls-5" d="M1538.627 902.116V658.791l70.063-24.175 231.1 14.443v253.057z" transform="translate(-1538.627 -634.616)"/>
                                            </g>
                                            <path id="Trazado_3990" data-name="Trazado 3990" d="M2185.764 902.116V658.791l70.063-24.175v267.5z" transform="translate(-2185.764 -634.616)" style="stroke-width:3.172px;stroke-miterlimit:10;stroke:#00273b;fill:#00273b"/>
                                            <g id="Grupo_5898" data-name="Grupo 5898" transform="translate(87.603 14.443)">
                                                <g id="Grupo_5897" data-name="Grupo 5897" style="clip-path:url(#clip-path-3)">
                                                    <g id="Grupo_5896" data-name="Grupo 5896" transform="translate(-5.245 13.533)">
                                                        <path id="Línea_32" data-name="Línea 32" class="cls-9" d="M231.095 14.443 0 0"/>
                                                        <path id="Línea_33" data-name="Línea 33" class="cls-9" transform="translate(0 19.365)" d="M231.095 14.443 0 0"/>
                                                        <path id="Línea_34" data-name="Línea 34" class="cls-9" transform="translate(0 38.731)" d="M231.095 14.443 0 0"/>
                                                        <path id="Línea_35" data-name="Línea 35" class="cls-9" transform="translate(0 58.096)" d="M231.095 14.443 0 0"/>
                                                        <path id="Línea_36" data-name="Línea 36" class="cls-9" transform="translate(0 77.461)" d="M231.095 14.443 0 0"/>
                                                        <path id="Línea_37" data-name="Línea 37" class="cls-9" transform="translate(0 96.826)" d="M231.095 14.443 0 0"/>
                                                        <path id="Línea_38" data-name="Línea 38" class="cls-9" transform="translate(0 116.192)" d="M231.095 14.443 0 0"/>
                                                        <path id="Línea_39" data-name="Línea 39" class="cls-9" transform="translate(0 135.557)" d="M231.095 14.443 0 0"/>
                                                        <path id="Línea_40" data-name="Línea 40" class="cls-9" transform="translate(0 154.922)" d="M231.095 14.443 0 0"/>
                                                        <path id="Línea_41" data-name="Línea 41" class="cls-9" transform="translate(0 174.287)" d="M231.095 14.443 0 0"/>
                                                        <path id="Línea_42" data-name="Línea 42" class="cls-9" transform="translate(0 193.653)" d="M231.095 14.443 0 0"/>
                                                        <path id="Línea_43" data-name="Línea 43" class="cls-9" transform="translate(0 213.018)" d="M231.095 14.443 0 0"/>
                                                        <path id="Línea_44" data-name="Línea 44" class="cls-9" transform="translate(0 232.383)" d="M231.095 14.443 0 0"/>
                                                        <path id="Línea_45" data-name="Línea 45" class="cls-9" transform="translate(0 251.749)" d="M231.095 14.443 0 0"/>
                                                    </g>
                                                </g>
                                            </g>
                                        </g>
                                    </g>
                                    <g id="Grupo_5904" data-name="Grupo 5904" transform="translate(406.9)">
                                        <path id="Trazado_3991" data-name="Trazado 3991" class="cls-10" d="M1028.948 365.483V214.436l-64.966-4.06-34.107 12.181v322.4h99.074z" transform="translate(-917.301 -210.376)"/>
                                        <path id="Trazado_3992" data-name="Trazado 3992" class="cls-11" d="M1111.8 291.474v-68.917l34.107-12.181v81.1z" transform="translate(-1099.226 -210.376)"/>
                                        <path id="Trazado_3993" data-name="Trazado 3993" class="cls-5" d="M1018.885 435.184V245.8l-81.456-5.091-42.764 15.273V660.2h124.22z" transform="translate(-894.666 -229.877)"/>
                                        <path id="Trazado_3994" data-name="Trazado 3994" d="M1122.765 660.2V255.981l42.764-15.273V660.2z" transform="translate(-1122.765 -229.876)" style="stroke:#d3d4d3;stroke-width:2.761px;stroke-miterlimit:10;fill:#00273b"/>
                                        <g id="Grupo_5903" data-name="Grupo 5903" transform="translate(48.577 22.379)">
                                            <g id="Grupo_5902" data-name="Grupo 5902" class="cls-13">
                                                <g id="Grupo_5901" data-name="Grupo 5901" transform="translate(-4.167 5.848)">
                                                    <path id="Línea_46" data-name="Línea 46" class="cls-9" d="M81.455 5.091 0 0"/>
                                                    <path id="Línea_47" data-name="Línea 47" class="cls-9" transform="translate(0 6.826)" d="M81.455 5.091 0 0"/>
                                                    <path id="Línea_48" data-name="Línea 48" class="cls-9" transform="translate(0 13.652)" d="M81.455 5.091 0 0"/>
                                                    <path id="Línea_49" data-name="Línea 49" class="cls-9" transform="translate(0 20.477)" d="M81.455 5.091 0 0"/>
                                                    <path id="Línea_50" data-name="Línea 50" class="cls-9" transform="translate(0 27.303)" d="M81.455 5.091 0 0"/>
                                                    <path id="Línea_51" data-name="Línea 51" class="cls-9" transform="translate(0 34.129)" d="M81.455 5.091 0 0"/>
                                                    <path id="Línea_52" data-name="Línea 52" class="cls-9" transform="translate(0 40.955)" d="M81.455 5.091 0 0"/>
                                                    <path id="Línea_53" data-name="Línea 53" class="cls-9" transform="translate(0 47.781)" d="M81.455 5.091 0 0"/>
                                                    <path id="Línea_54" data-name="Línea 54" class="cls-9" transform="translate(0 54.606)" d="M81.455 5.091 0 0"/>
                                                    <path id="Línea_55" data-name="Línea 55" class="cls-9" transform="translate(0 61.432)" d="M81.455 5.091 0 0"/>
                                                    <path id="Línea_56" data-name="Línea 56" class="cls-9" transform="translate(0 68.258)" d="M81.455 5.091 0 0"/>
                                                    <path id="Línea_57" data-name="Línea 57" class="cls-9" transform="translate(0 75.084)" d="M81.455 5.091 0 0"/>
                                                    <path id="Línea_58" data-name="Línea 58" class="cls-9" transform="translate(0 81.91)" d="M81.455 5.091 0 0"/>
                                                    <path id="Línea_59" data-name="Línea 59" class="cls-9" transform="translate(0 88.735)" d="M81.455 5.091 0 0"/>
                                                    <path id="Línea_60" data-name="Línea 60" class="cls-9" transform="translate(0 95.561)" d="M81.455 5.091 0 0"/>
                                                    <path id="Línea_61" data-name="Línea 61" class="cls-9" transform="translate(0 102.387)" d="M81.455 5.091 0 0"/>
                                                    <path id="Línea_62" data-name="Línea 62" class="cls-9" transform="translate(0 109.213)" d="M81.455 5.091 0 0"/>
                                                    <path id="Línea_63" data-name="Línea 63" class="cls-9" transform="translate(0 116.039)" d="M81.455 5.091 0 0"/>
                                                    <path id="Línea_64" data-name="Línea 64" class="cls-9" transform="translate(0 122.864)" d="M81.455 5.091 0 0"/>
                                                    <path id="Línea_65" data-name="Línea 65" class="cls-9" transform="translate(0 129.69)" d="M81.455 5.091 0 0"/>
                                                    <path id="Línea_66" data-name="Línea 66" class="cls-9" transform="translate(0 136.516)" d="M81.455 5.091 0 0"/>
                                                    <path id="Línea_67" data-name="Línea 67" class="cls-9" transform="translate(0 143.342)" d="M81.455 5.091 0 0"/>
                                                    <path id="Línea_68" data-name="Línea 68" class="cls-9" transform="translate(0 150.168)" d="M81.455 5.091 0 0"/>
                                                    <path id="Línea_69" data-name="Línea 69" class="cls-9" transform="translate(0 156.993)" d="M81.455 5.091 0 0"/>
                                                    <path id="Línea_70" data-name="Línea 70" class="cls-9" transform="translate(0 163.819)" d="M81.455 5.091 0 0"/>
                                                    <path id="Línea_71" data-name="Línea 71" class="cls-9" transform="translate(0 170.645)" d="M81.455 5.091 0 0"/>
                                                    <path id="Línea_72" data-name="Línea 72" class="cls-9" transform="translate(0 177.471)" d="M81.455 5.091 0 0"/>
                                                    <path id="Línea_73" data-name="Línea 73" class="cls-9" transform="translate(0 184.297)" d="M81.455 5.091 0 0"/>
                                                    <path id="Línea_74" data-name="Línea 74" class="cls-9" transform="translate(0 191.122)" d="M81.455 5.091 0 0"/>
                                                    <path id="Línea_75" data-name="Línea 75" class="cls-9" transform="translate(0 197.948)" d="M81.455 5.091 0 0"/>
                                                    <path id="Línea_76" data-name="Línea 76" class="cls-9" transform="translate(0 204.774)" d="M81.455 5.091 0 0"/>
                                                    <path id="Línea_77" data-name="Línea 77" class="cls-9" transform="translate(0 211.6)" d="M81.455 5.091 0 0"/>
                                                    <path id="Línea_78" data-name="Línea 78" class="cls-9" transform="translate(0 218.425)" d="M81.455 5.091 0 0"/>
                                                    <path id="Línea_79" data-name="Línea 79" class="cls-9" transform="translate(0 225.251)" d="M81.455 5.091 0 0"/>
                                                    <path id="Línea_80" data-name="Línea 80" class="cls-9" transform="translate(0 232.077)" d="M81.455 5.091 0 0"/>
                                                    <path id="Línea_81" data-name="Línea 81" class="cls-9" transform="translate(0 238.903)" d="M81.455 5.091 0 0"/>
                                                    <path id="Línea_82" data-name="Línea 82" class="cls-9" transform="translate(0 245.729)" d="M81.455 5.091 0 0"/>
                                                    <path id="Línea_83" data-name="Línea 83" class="cls-9" transform="translate(0 252.554)" d="M81.455 5.091 0 0"/>
                                                    <path id="Línea_84" data-name="Línea 84" class="cls-9" transform="translate(0 259.38)" d="M81.455 5.091 0 0"/>
                                                    <path id="Línea_85" data-name="Línea 85" class="cls-9" transform="translate(0 266.206)" d="M81.455 5.091 0 0"/>
                                                    <path id="Línea_86" data-name="Línea 86" class="cls-9" transform="translate(0 273.032)" d="M81.455 5.091 0 0"/>
                                                    <path id="Línea_87" data-name="Línea 87" class="cls-9" transform="translate(0 279.858)" d="M81.455 5.091 0 0"/>
                                                    <path id="Línea_88" data-name="Línea 88" class="cls-9" transform="translate(0 286.683)" d="M81.455 5.091 0 0"/>
                                                    <path id="Línea_89" data-name="Línea 89" class="cls-9" transform="translate(0 293.509)" d="M81.455 5.091 0 0"/>
                                                    <path id="Línea_90" data-name="Línea 90" class="cls-9" transform="translate(0 300.335)" d="M81.455 5.091 0 0"/>
                                                    <path id="Línea_91" data-name="Línea 91" class="cls-9" transform="translate(0 307.161)" d="M81.455 5.091 0 0"/>
                                                    <path id="Línea_92" data-name="Línea 92" class="cls-9" transform="translate(0 313.987)" d="M81.455 5.091 0 0"/>
                                                    <path id="Línea_93" data-name="Línea 93" class="cls-9" transform="translate(0 320.812)" d="M81.455 5.091 0 0"/>
                                                    <path id="Línea_94" data-name="Línea 94" class="cls-9" transform="translate(0 327.638)" d="M81.455 5.091 0 0"/>
                                                    <path id="Línea_95" data-name="Línea 95" class="cls-9" transform="translate(0 334.464)" d="M81.455 5.091 0 0"/>
                                                    <path id="Línea_96" data-name="Línea 96" class="cls-9" transform="translate(0 341.29)" d="M81.455 5.091 0 0"/>
                                                    <path id="Línea_97" data-name="Línea 97" class="cls-9" transform="translate(0 348.116)" d="M81.455 5.091 0 0"/>
                                                    <path id="Línea_98" data-name="Línea 98" class="cls-9" transform="translate(0 354.941)" d="M81.455 5.091 0 0"/>
                                                    <path id="Línea_99" data-name="Línea 99" class="cls-9" transform="translate(0 361.767)" d="M81.455 5.091 0 0"/>
                                                    <path id="Línea_100" data-name="Línea 100" class="cls-9" transform="translate(0 368.593)" d="M81.455 5.091 0 0"/>
                                                    <path id="Línea_101" data-name="Línea 101" class="cls-9" transform="translate(0 375.419)" d="M81.455 5.091 0 0"/>
                                                    <path id="Línea_102" data-name="Línea 102" class="cls-9" transform="translate(0 382.245)" d="M81.455 5.091 0 0"/>
                                                    <path id="Línea_103" data-name="Línea 103" class="cls-9" transform="translate(0 389.07)" d="M81.455 5.091 0 0"/>
                                                </g>
                                            </g>
                                        </g>
                                    </g>
                                    <g id="Grupo_5905" data-name="Grupo 5905" transform="translate(309.529 25.862)">
                                        <path id="Línea_104" data-name="Línea 104" class="cls-9" transform="translate(23.873)" d="M0 36.117V0"/>
                                        <path id="Trazado_3995" data-name="Trazado 3995" class="cls-14" d="M1437.065 425.79v-42.947l-18.471-1.154-9.7 3.463v91.665h28.169z" transform="translate(-1399.108 -346.374)"/>
                                        <path id="Trazado_3996" data-name="Trazado 3996" class="cls-10" d="M1460.622 462.235v-77.082l9.7-3.463v80.546z" transform="translate(-1450.834 -346.374)"/>
                                        <path id="Trazado_3997" data-name="Trazado 3997" class="cls-14" d="M1429.231 647.42v-72.792l-31.309-1.957-16.437 5.87V733.91h47.746z" transform="translate(-1381.486 -469.155)"/>
                                        <path id="Trazado_3998" data-name="Trazado 3998" class="cls-10" d="M1469.16 757.665V578.541l16.437-5.87v184.994z" transform="translate(-1469.16 -469.155)"/>
                                    </g>
                                    <g id="Grupo_5907" data-name="Grupo 5907" transform="translate(222.291 217.705)">
                                        <path id="Trazado_3999" data-name="Trazado 3999" d="M1375.945 1129.416V830.5l-167.687-10.48-25.036 8.786v300.614z" transform="translate(-1170.161 -820.016)" style="stroke:#009efb;stroke-width:1.676px;fill:#d3d4d3;stroke-miterlimit:10"/>
                                        <path id="Trazado_4000" data-name="Trazado 4000" class="cls-10" d="M1690.894 820.016v309.4l-38.1 3.794V832.6z" transform="translate(-1652.797 -820.016)"/>
                                        <g id="Grupo_5906" data-name="Grupo 5906" transform="translate(50.319 11.399)">
                                            <path id="Línea_105" data-name="Línea 105" class="cls-16" transform="translate(145.975 9.618)" d="M0 0v288.383"/>
                                            <path id="Línea_106" data-name="Línea 106" class="cls-16" transform="translate(132.705 8.744)" d="M0 0v289.257"/>
                                            <path id="Línea_107" data-name="Línea 107" class="cls-16" transform="translate(119.434 7.87)" d="M0 0v290.131"/>
                                            <path id="Línea_108" data-name="Línea 108" class="cls-16" transform="translate(92.893 6.121)" d="M0 0v291.88"/>
                                            <path id="Línea_109" data-name="Línea 109" class="cls-16" transform="translate(105.548 6.121)" d="M0 0v291.88"/>
                                            <path id="Línea_110" data-name="Línea 110" class="cls-16" transform="translate(79.623 5.246)" d="M0 0v292.755"/>
                                            <path id="Línea_111" data-name="Línea 111" class="cls-16" transform="translate(66.352 4.372)" d="M0 0v293.629"/>
                                            <path id="Línea_112" data-name="Línea 112" class="cls-16" transform="translate(53.082 3.498)" d="M0 0v294.503"/>
                                            <path id="Línea_113" data-name="Línea 113" class="cls-16" transform="translate(39.811 2.623)" d="M0 0v295.378"/>
                                            <path id="Línea_114" data-name="Línea 114" class="cls-16" transform="translate(26.541 1.749)" d="M0 0v296.252"/>
                                            <path id="Línea_115" data-name="Línea 115" class="cls-16" transform="translate(13.27 .874)" d="M0 0v297.127"/>
                                            <path id="Línea_116" data-name="Línea 116" class="cls-16" d="M0 0v298.001"/>
                                        </g>
                                    </g>
                                    <g id="Grupo_5917" data-name="Grupo 5917" transform="translate(455.477 22.379)">
                                        <g id="Grupo_5916" data-name="Grupo 5916">
                                            <g id="Grupo_5915" data-name="Grupo 5915">
                                                <path id="Trazado_4001" data-name="Trazado 4001" class="cls-11" d="m603.495 873.441-140.586-8.787-36.768 13.2v178.585h177.354z" transform="translate(-360.539 -653.388)"/>
                                                <g id="Grupo_5908" data-name="Grupo 5908" transform="translate(40.455 222.987)">
                                                    <path id="Trazado_4002" data-name="Trazado 4002" d="M349.95 1101.51v-185.6l53.441-18.44 176.268 11.017v193.023z" transform="translate(-349.95 -897.474)" style="stroke:#b6b7b7;fill:#d3d4d3;stroke-width:1.38px;stroke-miterlimit:10"/>
                                                </g>
                                                <g id="Grupo_5911" data-name="Grupo 5911" transform="translate(40.455 222.987)">
                                                    <g id="Grupo_5910" data-name="Grupo 5910" style="clip-path:url(#clip-path-5)">
                                                        <g id="Grupo_5909" data-name="Grupo 5909" transform="translate(62.818 21.339)">
                                                            <path id="Línea_117" data-name="Línea 117" class="cls-9" d="M176.268 11.017 0 0"/>
                                                            <path id="Línea_118" data-name="Línea 118" class="cls-9" transform="translate(0 14.771)" d="M176.268 11.017 0 0"/>
                                                            <path id="Línea_119" data-name="Línea 119" class="cls-9" transform="translate(0 29.542)" d="M176.268 11.017 0 0"/>
                                                            <path id="Línea_120" data-name="Línea 120" class="cls-9" transform="translate(0 44.313)" d="M176.268 11.017 0 0"/>
                                                            <path id="Línea_121" data-name="Línea 121" class="cls-9" transform="translate(0 59.083)" d="M176.268 11.017 0 0"/>
                                                            <path id="Línea_122" data-name="Línea 122" class="cls-9" transform="translate(0 73.854)" d="M176.268 11.017 0 0"/>
                                                            <path id="Línea_123" data-name="Línea 123" class="cls-9" transform="translate(0 88.625)" d="M176.268 11.017 0 0"/>
                                                            <path id="Línea_124" data-name="Línea 124" class="cls-9" transform="translate(0 103.396)" d="M176.268 11.017 0 0"/>
                                                            <path id="Línea_125" data-name="Línea 125" class="cls-9" transform="translate(0 118.167)" d="M176.268 11.017 0 0"/>
                                                            <path id="Línea_126" data-name="Línea 126" class="cls-9" transform="translate(0 132.938)" d="M176.268 11.017 0 0"/>
                                                            <path id="Línea_127" data-name="Línea 127" class="cls-9" transform="translate(0 147.709)" d="M176.268 11.017 0 0"/>
                                                            <path id="Línea_128" data-name="Línea 128" class="cls-9" transform="translate(0 162.48)" d="M176.268 11.017 0 0"/>
                                                            <path id="Línea_129" data-name="Línea 129" class="cls-9" transform="translate(0 177.25)" d="M176.268 11.017 0 0"/>
                                                            <path id="Línea_130" data-name="Línea 130" class="cls-9" transform="translate(0 192.021)" d="M176.268 11.017 0 0"/>
                                                        </g>
                                                    </g>
                                                </g>
                                                <g id="Trazado_4004" data-name="Trazado 4004" style="stroke-miterlimit:10;fill:#00273b">
                                                    <path d="M894.924 1099.44h-49.3V917.39l49.3-17.011v199.06z" style="stroke:none" transform="translate(-803.099 -674.487)"/>
                                                    <path d="M892.853 1097.37V903.283l-45.158 15.582v178.503h45.158m4.141 4.141h-53.44V915.914l53.44-18.44v204.036z" style="fill:#d3d4d3;stroke:none" transform="translate(-803.099 -674.487)"/>
                                                </g>
                                                <g id="Grupo_5914" data-name="Grupo 5914">
                                                    <g id="Grupo_5913" data-name="Grupo 5913" class="cls-13">
                                                        <g id="Grupo_5912" data-name="Grupo 5912" transform="translate(-4.167 244.751)">
                                                            <path id="Línea_131" data-name="Línea 131" class="cls-9" d="M81.455 5.091 0 0"/>
                                                            <path id="Línea_132" data-name="Línea 132" class="cls-9" transform="translate(0 6.826)" d="M81.455 5.091 0 0"/>
                                                            <path id="Línea_133" data-name="Línea 133" class="cls-9" transform="translate(0 13.652)" d="M81.455 5.091 0 0"/>
                                                            <path id="Línea_134" data-name="Línea 134" class="cls-9" transform="translate(0 20.477)" d="M81.455 5.091 0 0"/>
                                                            <path id="Línea_135" data-name="Línea 135" class="cls-9" transform="translate(0 27.303)" d="M81.455 5.091 0 0"/>
                                                            <path id="Línea_136" data-name="Línea 136" class="cls-9" transform="translate(0 34.129)" d="M81.455 5.091 0 0"/>
                                                            <path id="Línea_137" data-name="Línea 137" class="cls-9" transform="translate(0 40.955)" d="M81.455 5.091 0 0"/>
                                                            <path id="Línea_138" data-name="Línea 138" class="cls-9" transform="translate(0 47.781)" d="M81.455 5.091 0 0"/>
                                                            <path id="Línea_139" data-name="Línea 139" class="cls-9" transform="translate(0 54.606)" d="M81.455 5.091 0 0"/>
                                                            <path id="Línea_140" data-name="Línea 140" class="cls-9" transform="translate(0 61.432)" d="M81.455 5.091 0 0"/>
                                                            <path id="Línea_141" data-name="Línea 141" class="cls-9" transform="translate(0 68.258)" d="M81.455 5.091 0 0"/>
                                                            <path id="Línea_142" data-name="Línea 142" class="cls-9" transform="translate(0 75.084)" d="M81.455 5.091 0 0"/>
                                                            <path id="Línea_143" data-name="Línea 143" class="cls-9" transform="translate(0 81.91)" d="M81.455 5.091 0 0"/>
                                                            <path id="Línea_144" data-name="Línea 144" class="cls-9" transform="translate(0 88.735)" d="M81.455 5.091 0 0"/>
                                                            <path id="Línea_145" data-name="Línea 145" class="cls-9" transform="translate(0 95.561)" d="M81.455 5.091 0 0"/>
                                                            <path id="Línea_146" data-name="Línea 146" class="cls-9" transform="translate(0 102.387)" d="M81.455 5.091 0 0"/>
                                                            <path id="Línea_147" data-name="Línea 147" class="cls-9" transform="translate(0 109.213)" d="M81.455 5.091 0 0"/>
                                                            <path id="Línea_148" data-name="Línea 148" class="cls-9" transform="translate(0 116.039)" d="M81.455 5.091 0 0"/>
                                                            <path id="Línea_149" data-name="Línea 149" class="cls-9" transform="translate(0 122.864)" d="M81.455 5.091 0 0"/>
                                                            <path id="Línea_150" data-name="Línea 150" class="cls-9" transform="translate(0 129.69)" d="M81.455 5.091 0 0"/>
                                                            <path id="Línea_151" data-name="Línea 151" class="cls-9" transform="translate(0 136.516)" d="M81.455 5.091 0 0"/>
                                                            <path id="Línea_152" data-name="Línea 152" class="cls-9" transform="translate(0 143.342)" d="M81.455 5.091 0 0"/>
                                                            <path id="Línea_153" data-name="Línea 153" class="cls-9" transform="translate(0 150.168)" d="M81.455 5.091 0 0"/>
                                                        </g>
                                                    </g>
                                                </g>
                                            </g>
                                        </g>
                                    </g>
                                </g>
                            </g>
                        </g>
                        <path id="Trazado_4006" data-name="Trazado 4006" class="cls-20" d="m352.785 1248.949 533.687-38.773h5.046v.068l-538.733 41.441z" transform="translate(-352.505 -737.816)"/>
                        <path id="Trazado_4007" data-name="Trazado 4007" d="m352.785 1248.949 533.687-38.773h5.046v.068l-538.733 41.441z" transform="translate(-352.505 -737.816)" style="opacity:.5;fill:#fff"/>
                        <path id="Rectángulo_3007" data-name="Rectángulo 3007" class="cls-20" transform="translate(396.561 111.374)" d="M0 0h1.421v371.902H0z"/>
                        <path id="Rectángulo_3008" data-name="Rectángulo 3008" class="cls-14" transform="translate(396.561 111.374)" d="M0 0h1.421v371.902H0z"/>
                        <path id="Rectángulo_3009" data-name="Rectángulo 3009" class="cls-3" transform="translate(397.982 110.074)" d="M0 0h5.417v377.027H0z"/>
                        <path id="Rectángulo_3010" data-name="Rectángulo 3010" class="cls-3" transform="translate(201.04 38.296)" d="M0 0h8.726v469.113H0z"/>
                        <path id="Rectángulo_3011" data-name="Rectángulo 3011" class="cls-20" transform="translate(199.138 56.211)" d="M0 0h1.902v442.206H0z"/>
                        <path id="Trazado_4008" data-name="Trazado 4008" d="M1.9 0H0v442.206h1.9z" transform="translate(199.138 56.211)" style="opacity:.999;fill:#fff"/>
                    </g>
                </g>
            </g>
        </g>
    </g>
</svg>
