<svg xmlns="http://www.w3.org/2000/svg" width="20" height="18.335" viewBox="0 0 20 18.335">
  <path id="Sms__1Light" data-name="Sms _1Light" d="M19.166,41.474v-9.1a2.315,2.315,0,0,0-2.353-2.268H3.187A2.316,2.316,0,0,0,.831,32.373v9.1a2.228,2.228,0,0,0,1.8,2.22.409.409,0,0,1,.333.4v2.2a.6.6,0,0,0,1.1.268L6.209,43.9a.418.418,0,0,1,.327-.154h10.27A2.319,2.319,0,0,0,19.166,41.474ZM16.813,29.3A3.136,3.136,0,0,1,20,32.373v9.1a3.136,3.136,0,0,1-3.187,3.073H6.744l-2.02,2.5a1.425,1.425,0,0,1-1.175.586,1.4,1.4,0,0,1-1.417-1.34V44.4A3.041,3.041,0,0,1,0,41.474v-9.1A3.136,3.136,0,0,1,3.187,29.3ZM4.821,36.591c.726.282,1.631.629,1.631,1.807,0,1.042-.74,1.639-2.026,1.639a4.536,4.536,0,0,1-1.42-.222.3.3,0,0,1-.191-.353l.054-.219a.3.3,0,0,1,.151-.191.314.314,0,0,1,.248-.026,2.976,2.976,0,0,0,2.043-.009.666.666,0,0,0,.276-.609c0-.586-.4-.771-1.121-1.047s-1.582-.615-1.582-1.727a1.46,1.46,0,0,1,.487-1.15,2.9,2.9,0,0,1,2.587-.236.3.3,0,0,1,.216.364l-.054.211a.306.306,0,0,1-.148.188.325.325,0,0,1-.242.028,3.419,3.419,0,0,0-.945-.139c-1.044,0-1.044.492-1.044.7,0,.544.393.723,1.081.99Zm7.45-2.425a.308.308,0,0,1,.313.3v5.159a.306.306,0,0,1-.313.3h-.219a.308.308,0,0,1-.313-.3v-3.5l-1.366,2.507a.319.319,0,0,1-.276.162H9.863a.317.317,0,0,1-.279-.165L8.273,36.158V39.63a.306.306,0,0,1-.313.3H7.74a.308.308,0,0,1-.313-.3V34.471a.306.306,0,0,1,.313-.3h.236a.314.314,0,0,1,.279.165l1.736,3.273,1.784-3.278a.321.321,0,0,1,.279-.162Zm3.3,2.425c.726.282,1.631.629,1.631,1.807,0,1.042-.74,1.639-2.026,1.639a4.536,4.536,0,0,1-1.42-.222.3.3,0,0,1-.191-.353l.054-.219a.3.3,0,0,1,.151-.191.314.314,0,0,1,.248-.026,2.976,2.976,0,0,0,2.043-.009.666.666,0,0,0,.276-.609c0-.586-.4-.771-1.121-1.047s-1.585-.615-1.585-1.727a1.452,1.452,0,0,1,.489-1.15,2.9,2.9,0,0,1,2.587-.236.3.3,0,0,1,.216.364l-.054.211a.306.306,0,0,1-.148.188.326.326,0,0,1-.242.028,3.415,3.415,0,0,0-.942-.139c-1.044,0-1.044.492-1.044.7-.006.544.387.723,1.079.99Z" transform="translate(0 -29.3)" fill="#777" fill-rule="evenodd"/>
</svg>
